<svg width="100" height="114" viewBox="0 0 100 114" fill="none" xmlns="http://www.w3.org/2000/svg">
<g clip-path="url(#clip0_103_512)">
<path fill-rule="evenodd" clip-rule="evenodd" d="M51.1547 0.307364C50.4402 -0.102455 49.5598 -0.102455 48.8453 0.307364L1.1547 27.6603C0.440169 28.0701 0 28.8275 0 29.6471V84.3529C0 85.1725 0.440169 85.9299 1.1547 86.3397L48.8453 113.693C49.5598 114.102 50.4402 114.102 51.1547 113.693L98.8453 86.3397C99.5598 85.9299 100 85.1725 100 84.3529V29.6471C100 28.8275 99.5598 28.0701 98.8453 27.6603L51.1547 0.307364Z" fill="#12B13E"/>
<path fill-rule="evenodd" clip-rule="evenodd" d="M50.7745 33.3882L58.9265 41.9284C59.3632 42.4136 59.3632 43.1415 58.878 43.5782C58.3927 44.0149 57.6649 44.0149 57.2282 43.5296L51.1142 37.076V53.574C51.1142 54.2534 50.5804 54.7386 49.9496 54.7386C49.2703 54.7386 48.785 54.2534 48.785 53.574V37.076L42.6225 43.5296C42.1858 44.0149 41.458 44.0149 40.9727 43.5782C40.4875 43.1415 40.4875 42.3651 40.9242 41.9284L49.0762 33.3882C49.3188 33.1456 49.6099 33 49.9496 33C50.2407 33 50.5319 33.1456 50.7745 33.3882ZM22 64.5727C22 64.9124 22.097 65.2036 22.3397 65.4462L30.8798 73.5981C31.3651 74.0349 32.0929 74.0349 32.5296 73.5496C32.9664 73.0644 32.9664 72.3365 32.4811 71.8998L26.0275 65.7373H42.574C42.6119 65.7373 42.6493 65.7356 42.6864 65.7321H46.7147C47.7823 65.7321 48.6557 66.6159 48.6557 67.732V75.8354C48.6557 76.5148 49.1409 77 49.8202 77C50.4511 77 50.9848 76.5148 50.9848 75.8354V67.6834C50.9848 65.3543 49.0439 63.4134 46.7147 63.4134H42.6816C42.6461 63.4099 42.6103 63.4082 42.574 63.4082H26.0275L32.4811 57.2942C32.9664 56.8575 32.9664 56.0811 32.5296 55.6444C32.0929 55.1591 31.3651 55.1591 30.8798 55.5959L22.3397 63.7478C22.097 63.9905 22 64.2816 22 64.5727ZM67.9358 73.5981L76.476 65.4462C76.7186 65.2036 76.8642 64.9124 76.8642 64.5727C76.8642 64.2816 76.7186 63.9905 76.476 63.7478L67.9358 55.5959C67.4991 55.1591 66.7227 55.1591 66.286 55.6444C65.8493 56.0811 65.8493 56.8575 66.3345 57.2942L72.7882 63.4082H56.2901C55.6108 63.4082 55.1255 63.9419 55.1255 64.5727C55.1255 65.2521 55.6108 65.7373 56.2901 65.7373H72.7882L66.3345 71.8998C65.8493 72.3365 65.8493 73.0644 66.286 73.5496C66.7227 74.0349 67.4506 74.0349 67.9358 73.5981Z" fill="#FEFAF4"/>
</g>
<defs>
<clipPath id="clip0_103_512">
<rect width="100" height="114" fill="white"/>
</clipPath>
</defs>
</svg>
